<mxfile host="Electron" agent="Mozilla/5.0 (Windows NT 10.0; Win64; x64) AppleWebKit/537.36 (KHTML, like Gecko) draw.io/26.2.2 Chrome/134.0.6998.178 Electron/35.1.2 Safari/537.36" version="26.2.2">
  <diagram name="第 1 页" id="rVJZ7-iNneda64m8HOxL">
    <mxGraphModel dx="2467" dy="2204" grid="1" gridSize="10" guides="1" tooltips="1" connect="1" arrows="1" fold="1" page="1" pageScale="1" pageWidth="827" pageHeight="1169" math="0" shadow="0">
      <root>
        <mxCell id="0" />
        <mxCell id="1" parent="0" />
        <mxCell id="4Ejzvw8-H5sas0dCmpk8-146" value="" style="rounded=1;whiteSpace=wrap;html=1;fillColor=none;strokeColor=none;movable=0;resizable=0;rotatable=0;deletable=0;editable=0;locked=1;connectable=0;" vertex="1" parent="1">
          <mxGeometry x="-20" y="-30" width="1240" height="550" as="geometry" />
        </mxCell>
        <mxCell id="4Ejzvw8-H5sas0dCmpk8-2" value="&lt;div style=&quot;&quot;&gt;&lt;font&gt;&lt;br&gt;&lt;/font&gt;&lt;/div&gt;&lt;div style=&quot;&quot;&gt;&lt;font&gt;&amp;nbsp; &amp;nbsp; int a = 1;&lt;/font&gt;&lt;/div&gt;&lt;font&gt;&lt;span style=&quot;&quot;&gt;&amp;nbsp; &amp;nbsp; int main(){&lt;/span&gt;&lt;br style=&quot;&quot;&gt;&lt;/font&gt;&lt;div style=&quot;&quot;&gt;&lt;font&gt;&lt;span style=&quot;white-space: pre;&quot;&gt;&#x9;&lt;/span&gt;int b = a + 1;&lt;br&gt;&lt;/font&gt;&lt;/div&gt;&lt;div style=&quot;&quot;&gt;&lt;font&gt;&lt;span style=&quot;white-space: pre;&quot;&gt;&#x9;&lt;/span&gt;return b+1;&lt;/font&gt;&lt;/div&gt;&lt;div style=&quot;&quot;&gt;&lt;font&gt;&amp;nbsp; &amp;nbsp; }&lt;/font&gt;&lt;/div&gt;" style="rounded=1;whiteSpace=wrap;html=1;align=left;verticalAlign=top;fontFamily=Cosolas;fillColor=#f5f5f5;fontColor=#333333;strokeColor=#666666;" vertex="1" parent="1">
          <mxGeometry x="40" y="107.5" width="120" height="112.5" as="geometry" />
        </mxCell>
        <mxCell id="4Ejzvw8-H5sas0dCmpk8-4" value="" style="endArrow=classic;html=1;rounded=0;align=left;verticalAlign=top;fontFamily=Cosolas;" edge="1" parent="1">
          <mxGeometry width="50" height="50" relative="1" as="geometry">
            <mxPoint x="160" y="159.5" as="sourcePoint" />
            <mxPoint x="240" y="159.5" as="targetPoint" />
          </mxGeometry>
        </mxCell>
        <mxCell id="4Ejzvw8-H5sas0dCmpk8-6" value="" style="shape=table;html=1;whiteSpace=wrap;startSize=0;container=1;collapsible=0;childLayout=tableLayout;columnLines=0;rowLines=0;fontSize=16;strokeColor=#666666;align=left;verticalAlign=top;fontFamily=Cosolas;rounded=1;fillColor=#f5f5f5;fontColor=#333333;" vertex="1" parent="1">
          <mxGeometry x="240" y="40" width="120" height="245" as="geometry" />
        </mxCell>
        <mxCell id="4Ejzvw8-H5sas0dCmpk8-7" value="" style="shape=tableRow;horizontal=0;startSize=0;swimlaneHead=0;swimlaneBody=0;top=0;left=0;bottom=0;right=0;collapsible=0;dropTarget=0;fillColor=#f5f5f5;points=[[0,0.5],[1,0.5]];portConstraint=eastwest;fontSize=16;strokeColor=#666666;align=left;verticalAlign=top;fontFamily=Cosolas;fontColor=#333333;" vertex="1" parent="4Ejzvw8-H5sas0dCmpk8-6">
          <mxGeometry width="120" height="25" as="geometry" />
        </mxCell>
        <mxCell id="4Ejzvw8-H5sas0dCmpk8-8" value="INTTK" style="shape=partialRectangle;html=1;whiteSpace=wrap;connectable=0;fillColor=#f5f5f5;top=0;left=0;bottom=0;right=0;overflow=hidden;fontSize=12;strokeColor=#666666;align=left;verticalAlign=top;fontFamily=Cosolas;fontColor=#333333;" vertex="1" parent="4Ejzvw8-H5sas0dCmpk8-7">
          <mxGeometry width="60" height="25" as="geometry">
            <mxRectangle width="60" height="25" as="alternateBounds" />
          </mxGeometry>
        </mxCell>
        <mxCell id="4Ejzvw8-H5sas0dCmpk8-9" value="int" style="shape=partialRectangle;html=1;whiteSpace=wrap;connectable=0;fillColor=#f5f5f5;top=0;left=0;bottom=0;right=0;overflow=hidden;fontSize=12;strokeColor=#666666;align=left;verticalAlign=top;fontFamily=Cosolas;fontColor=#333333;" vertex="1" parent="4Ejzvw8-H5sas0dCmpk8-7">
          <mxGeometry x="60" width="60" height="25" as="geometry">
            <mxRectangle width="60" height="25" as="alternateBounds" />
          </mxGeometry>
        </mxCell>
        <mxCell id="4Ejzvw8-H5sas0dCmpk8-11" value="" style="shape=tableRow;horizontal=0;startSize=0;swimlaneHead=0;swimlaneBody=0;top=0;left=0;bottom=0;right=0;collapsible=0;dropTarget=0;fillColor=#f5f5f5;points=[[0,0.5],[1,0.5]];portConstraint=eastwest;fontSize=16;strokeColor=#666666;align=left;verticalAlign=top;fontFamily=Cosolas;fontColor=#333333;" vertex="1" parent="4Ejzvw8-H5sas0dCmpk8-6">
          <mxGeometry y="25" width="120" height="21" as="geometry" />
        </mxCell>
        <mxCell id="4Ejzvw8-H5sas0dCmpk8-12" value="IDENFR" style="shape=partialRectangle;html=1;whiteSpace=wrap;connectable=0;fillColor=#f5f5f5;top=0;left=0;bottom=0;right=0;overflow=hidden;fontSize=12;strokeColor=#666666;align=left;verticalAlign=top;fontFamily=Cosolas;fontColor=#333333;" vertex="1" parent="4Ejzvw8-H5sas0dCmpk8-11">
          <mxGeometry width="60" height="21" as="geometry">
            <mxRectangle width="60" height="21" as="alternateBounds" />
          </mxGeometry>
        </mxCell>
        <mxCell id="4Ejzvw8-H5sas0dCmpk8-13" value="a" style="shape=partialRectangle;html=1;whiteSpace=wrap;connectable=0;fillColor=#f5f5f5;top=0;left=0;bottom=0;right=0;overflow=hidden;fontSize=12;strokeColor=#666666;align=left;verticalAlign=top;fontFamily=Cosolas;fontColor=#333333;" vertex="1" parent="4Ejzvw8-H5sas0dCmpk8-11">
          <mxGeometry x="60" width="60" height="21" as="geometry">
            <mxRectangle width="60" height="21" as="alternateBounds" />
          </mxGeometry>
        </mxCell>
        <mxCell id="4Ejzvw8-H5sas0dCmpk8-15" value="" style="shape=tableRow;horizontal=0;startSize=0;swimlaneHead=0;swimlaneBody=0;top=0;left=0;bottom=0;right=0;collapsible=0;dropTarget=0;fillColor=#f5f5f5;points=[[0,0.5],[1,0.5]];portConstraint=eastwest;fontSize=16;strokeColor=#666666;align=left;verticalAlign=top;fontFamily=Cosolas;fontColor=#333333;" vertex="1" parent="4Ejzvw8-H5sas0dCmpk8-6">
          <mxGeometry y="46" width="120" height="25" as="geometry" />
        </mxCell>
        <mxCell id="4Ejzvw8-H5sas0dCmpk8-16" value="ASSIGN" style="shape=partialRectangle;html=1;whiteSpace=wrap;connectable=0;fillColor=#f5f5f5;top=0;left=0;bottom=0;right=0;overflow=hidden;fontSize=12;strokeColor=#666666;align=left;verticalAlign=top;fontFamily=Cosolas;fontColor=#333333;" vertex="1" parent="4Ejzvw8-H5sas0dCmpk8-15">
          <mxGeometry width="60" height="25" as="geometry">
            <mxRectangle width="60" height="25" as="alternateBounds" />
          </mxGeometry>
        </mxCell>
        <mxCell id="4Ejzvw8-H5sas0dCmpk8-17" value="=" style="shape=partialRectangle;html=1;whiteSpace=wrap;connectable=0;fillColor=#f5f5f5;top=0;left=0;bottom=0;right=0;overflow=hidden;fontSize=12;strokeColor=#666666;align=left;verticalAlign=top;fontFamily=Cosolas;fontColor=#333333;" vertex="1" parent="4Ejzvw8-H5sas0dCmpk8-15">
          <mxGeometry x="60" width="60" height="25" as="geometry">
            <mxRectangle width="60" height="25" as="alternateBounds" />
          </mxGeometry>
        </mxCell>
        <mxCell id="4Ejzvw8-H5sas0dCmpk8-19" style="shape=tableRow;horizontal=0;startSize=0;swimlaneHead=0;swimlaneBody=0;top=0;left=0;bottom=0;right=0;collapsible=0;dropTarget=0;fillColor=#f5f5f5;points=[[0,0.5],[1,0.5]];portConstraint=eastwest;fontSize=16;strokeColor=#666666;align=left;verticalAlign=top;fontFamily=Cosolas;fontColor=#333333;" vertex="1" parent="4Ejzvw8-H5sas0dCmpk8-6">
          <mxGeometry y="71" width="120" height="24" as="geometry" />
        </mxCell>
        <mxCell id="4Ejzvw8-H5sas0dCmpk8-20" value="INTLTR" style="shape=partialRectangle;html=1;whiteSpace=wrap;connectable=0;fillColor=#f5f5f5;top=0;left=0;bottom=0;right=0;overflow=hidden;fontSize=12;strokeColor=#666666;align=left;verticalAlign=top;fontFamily=Cosolas;fontColor=#333333;" vertex="1" parent="4Ejzvw8-H5sas0dCmpk8-19">
          <mxGeometry width="60" height="24" as="geometry">
            <mxRectangle width="60" height="24" as="alternateBounds" />
          </mxGeometry>
        </mxCell>
        <mxCell id="4Ejzvw8-H5sas0dCmpk8-21" value="1" style="shape=partialRectangle;html=1;whiteSpace=wrap;connectable=0;fillColor=#f5f5f5;top=0;left=0;bottom=0;right=0;overflow=hidden;fontSize=12;strokeColor=#666666;align=left;verticalAlign=top;fontFamily=Cosolas;fontColor=#333333;" vertex="1" parent="4Ejzvw8-H5sas0dCmpk8-19">
          <mxGeometry x="60" width="60" height="24" as="geometry">
            <mxRectangle width="60" height="24" as="alternateBounds" />
          </mxGeometry>
        </mxCell>
        <mxCell id="4Ejzvw8-H5sas0dCmpk8-22" style="shape=tableRow;horizontal=0;startSize=0;swimlaneHead=0;swimlaneBody=0;top=0;left=0;bottom=0;right=0;collapsible=0;dropTarget=0;fillColor=#f5f5f5;points=[[0,0.5],[1,0.5]];portConstraint=eastwest;fontSize=16;strokeColor=#666666;align=left;verticalAlign=top;fontFamily=Cosolas;fontColor=#333333;" vertex="1" parent="4Ejzvw8-H5sas0dCmpk8-6">
          <mxGeometry y="95" width="120" height="25" as="geometry" />
        </mxCell>
        <mxCell id="4Ejzvw8-H5sas0dCmpk8-23" value="SEMICN" style="shape=partialRectangle;html=1;whiteSpace=wrap;connectable=0;fillColor=#f5f5f5;top=0;left=0;bottom=0;right=0;overflow=hidden;fontSize=12;strokeColor=#666666;align=left;verticalAlign=top;fontFamily=Cosolas;fontColor=#333333;" vertex="1" parent="4Ejzvw8-H5sas0dCmpk8-22">
          <mxGeometry width="60" height="25" as="geometry">
            <mxRectangle width="60" height="25" as="alternateBounds" />
          </mxGeometry>
        </mxCell>
        <mxCell id="4Ejzvw8-H5sas0dCmpk8-24" value=";" style="shape=partialRectangle;html=1;whiteSpace=wrap;connectable=0;fillColor=#f5f5f5;top=0;left=0;bottom=0;right=0;overflow=hidden;fontSize=12;strokeColor=#666666;align=left;verticalAlign=top;fontFamily=Cosolas;fontColor=#333333;" vertex="1" parent="4Ejzvw8-H5sas0dCmpk8-22">
          <mxGeometry x="60" width="60" height="25" as="geometry">
            <mxRectangle width="60" height="25" as="alternateBounds" />
          </mxGeometry>
        </mxCell>
        <mxCell id="4Ejzvw8-H5sas0dCmpk8-25" style="shape=tableRow;horizontal=0;startSize=0;swimlaneHead=0;swimlaneBody=0;top=0;left=0;bottom=0;right=0;collapsible=0;dropTarget=0;fillColor=#f5f5f5;points=[[0,0.5],[1,0.5]];portConstraint=eastwest;fontSize=16;strokeColor=#666666;align=left;verticalAlign=top;fontFamily=Cosolas;fontColor=#333333;" vertex="1" parent="4Ejzvw8-H5sas0dCmpk8-6">
          <mxGeometry y="120" width="120" height="25" as="geometry" />
        </mxCell>
        <mxCell id="4Ejzvw8-H5sas0dCmpk8-26" value="INTTK" style="shape=partialRectangle;html=1;whiteSpace=wrap;connectable=0;fillColor=#f5f5f5;top=0;left=0;bottom=0;right=0;overflow=hidden;fontSize=12;strokeColor=#666666;align=left;verticalAlign=top;fontFamily=Cosolas;fontColor=#333333;" vertex="1" parent="4Ejzvw8-H5sas0dCmpk8-25">
          <mxGeometry width="60" height="25" as="geometry">
            <mxRectangle width="60" height="25" as="alternateBounds" />
          </mxGeometry>
        </mxCell>
        <mxCell id="4Ejzvw8-H5sas0dCmpk8-27" value="int" style="shape=partialRectangle;html=1;whiteSpace=wrap;connectable=0;fillColor=#f5f5f5;top=0;left=0;bottom=0;right=0;overflow=hidden;fontSize=12;strokeColor=#666666;align=left;verticalAlign=top;fontFamily=Cosolas;fontColor=#333333;" vertex="1" parent="4Ejzvw8-H5sas0dCmpk8-25">
          <mxGeometry x="60" width="60" height="25" as="geometry">
            <mxRectangle width="60" height="25" as="alternateBounds" />
          </mxGeometry>
        </mxCell>
        <mxCell id="4Ejzvw8-H5sas0dCmpk8-28" style="shape=tableRow;horizontal=0;startSize=0;swimlaneHead=0;swimlaneBody=0;top=0;left=0;bottom=0;right=0;collapsible=0;dropTarget=0;fillColor=#f5f5f5;points=[[0,0.5],[1,0.5]];portConstraint=eastwest;fontSize=16;strokeColor=#666666;align=left;verticalAlign=top;fontFamily=Cosolas;fontColor=#333333;" vertex="1" parent="4Ejzvw8-H5sas0dCmpk8-6">
          <mxGeometry y="145" width="120" height="25" as="geometry" />
        </mxCell>
        <mxCell id="4Ejzvw8-H5sas0dCmpk8-29" value="IDENFR" style="shape=partialRectangle;html=1;whiteSpace=wrap;connectable=0;fillColor=#f5f5f5;top=0;left=0;bottom=0;right=0;overflow=hidden;fontSize=12;strokeColor=#666666;align=left;verticalAlign=top;fontFamily=Cosolas;fontColor=#333333;" vertex="1" parent="4Ejzvw8-H5sas0dCmpk8-28">
          <mxGeometry width="60" height="25" as="geometry">
            <mxRectangle width="60" height="25" as="alternateBounds" />
          </mxGeometry>
        </mxCell>
        <mxCell id="4Ejzvw8-H5sas0dCmpk8-30" value="main" style="shape=partialRectangle;html=1;whiteSpace=wrap;connectable=0;fillColor=#f5f5f5;top=0;left=0;bottom=0;right=0;overflow=hidden;fontSize=12;strokeColor=#666666;align=left;verticalAlign=top;fontFamily=Cosolas;fontColor=#333333;" vertex="1" parent="4Ejzvw8-H5sas0dCmpk8-28">
          <mxGeometry x="60" width="60" height="25" as="geometry">
            <mxRectangle width="60" height="25" as="alternateBounds" />
          </mxGeometry>
        </mxCell>
        <mxCell id="4Ejzvw8-H5sas0dCmpk8-31" style="shape=tableRow;horizontal=0;startSize=0;swimlaneHead=0;swimlaneBody=0;top=0;left=0;bottom=0;right=0;collapsible=0;dropTarget=0;fillColor=#f5f5f5;points=[[0,0.5],[1,0.5]];portConstraint=eastwest;fontSize=16;strokeColor=#666666;align=left;verticalAlign=top;fontFamily=Cosolas;fontColor=#333333;" vertex="1" parent="4Ejzvw8-H5sas0dCmpk8-6">
          <mxGeometry y="170" width="120" height="25" as="geometry" />
        </mxCell>
        <mxCell id="4Ejzvw8-H5sas0dCmpk8-32" value="LPARENT" style="shape=partialRectangle;html=1;whiteSpace=wrap;connectable=0;fillColor=#f5f5f5;top=0;left=0;bottom=0;right=0;overflow=hidden;fontSize=12;strokeColor=#666666;align=left;verticalAlign=top;fontFamily=Cosolas;fontColor=#333333;" vertex="1" parent="4Ejzvw8-H5sas0dCmpk8-31">
          <mxGeometry width="60" height="25" as="geometry">
            <mxRectangle width="60" height="25" as="alternateBounds" />
          </mxGeometry>
        </mxCell>
        <mxCell id="4Ejzvw8-H5sas0dCmpk8-33" value="(" style="shape=partialRectangle;html=1;whiteSpace=wrap;connectable=0;fillColor=#f5f5f5;top=0;left=0;bottom=0;right=0;overflow=hidden;fontSize=12;strokeColor=#666666;align=left;verticalAlign=top;fontFamily=Cosolas;fontColor=#333333;" vertex="1" parent="4Ejzvw8-H5sas0dCmpk8-31">
          <mxGeometry x="60" width="60" height="25" as="geometry">
            <mxRectangle width="60" height="25" as="alternateBounds" />
          </mxGeometry>
        </mxCell>
        <mxCell id="4Ejzvw8-H5sas0dCmpk8-34" style="shape=tableRow;horizontal=0;startSize=0;swimlaneHead=0;swimlaneBody=0;top=0;left=0;bottom=0;right=0;collapsible=0;dropTarget=0;fillColor=#f5f5f5;points=[[0,0.5],[1,0.5]];portConstraint=eastwest;fontSize=16;strokeColor=#666666;align=left;verticalAlign=top;fontFamily=Cosolas;fontColor=#333333;" vertex="1" parent="4Ejzvw8-H5sas0dCmpk8-6">
          <mxGeometry y="195" width="120" height="25" as="geometry" />
        </mxCell>
        <mxCell id="4Ejzvw8-H5sas0dCmpk8-35" value="RPARENT" style="shape=partialRectangle;html=1;whiteSpace=wrap;connectable=0;fillColor=#f5f5f5;top=0;left=0;bottom=0;right=0;overflow=hidden;fontSize=12;strokeColor=#666666;align=left;verticalAlign=top;fontFamily=Cosolas;fontColor=#333333;" vertex="1" parent="4Ejzvw8-H5sas0dCmpk8-34">
          <mxGeometry width="60" height="25" as="geometry">
            <mxRectangle width="60" height="25" as="alternateBounds" />
          </mxGeometry>
        </mxCell>
        <mxCell id="4Ejzvw8-H5sas0dCmpk8-36" value=")" style="shape=partialRectangle;html=1;whiteSpace=wrap;connectable=0;fillColor=#f5f5f5;top=0;left=0;bottom=0;right=0;overflow=hidden;fontSize=12;strokeColor=#666666;align=left;verticalAlign=top;fontFamily=Cosolas;fontColor=#333333;" vertex="1" parent="4Ejzvw8-H5sas0dCmpk8-34">
          <mxGeometry x="60" width="60" height="25" as="geometry">
            <mxRectangle width="60" height="25" as="alternateBounds" />
          </mxGeometry>
        </mxCell>
        <mxCell id="4Ejzvw8-H5sas0dCmpk8-37" style="shape=tableRow;horizontal=0;startSize=0;swimlaneHead=0;swimlaneBody=0;top=0;left=0;bottom=0;right=0;collapsible=0;dropTarget=0;fillColor=#f5f5f5;points=[[0,0.5],[1,0.5]];portConstraint=eastwest;fontSize=16;strokeColor=#666666;align=left;verticalAlign=top;fontFamily=Cosolas;fontColor=#333333;" vertex="1" parent="4Ejzvw8-H5sas0dCmpk8-6">
          <mxGeometry y="220" width="120" height="25" as="geometry" />
        </mxCell>
        <mxCell id="4Ejzvw8-H5sas0dCmpk8-38" value="..." style="shape=partialRectangle;html=1;whiteSpace=wrap;connectable=0;fillColor=#f5f5f5;top=0;left=0;bottom=0;right=0;overflow=hidden;fontSize=12;strokeColor=#666666;align=left;verticalAlign=top;fontFamily=Cosolas;fontColor=#333333;" vertex="1" parent="4Ejzvw8-H5sas0dCmpk8-37">
          <mxGeometry width="60" height="25" as="geometry">
            <mxRectangle width="60" height="25" as="alternateBounds" />
          </mxGeometry>
        </mxCell>
        <mxCell id="4Ejzvw8-H5sas0dCmpk8-39" value="..." style="shape=partialRectangle;html=1;whiteSpace=wrap;connectable=0;fillColor=#f5f5f5;top=0;left=0;bottom=0;right=0;overflow=hidden;fontSize=12;strokeColor=#666666;align=left;verticalAlign=top;fontFamily=Cosolas;fontColor=#333333;" vertex="1" parent="4Ejzvw8-H5sas0dCmpk8-37">
          <mxGeometry x="60" width="60" height="25" as="geometry">
            <mxRectangle width="60" height="25" as="alternateBounds" />
          </mxGeometry>
        </mxCell>
        <mxCell id="4Ejzvw8-H5sas0dCmpk8-41" value="" style="endArrow=classic;html=1;rounded=0;align=left;verticalAlign=top;fontFamily=Cosolas;" edge="1" parent="1">
          <mxGeometry width="50" height="50" relative="1" as="geometry">
            <mxPoint x="360" y="159.5" as="sourcePoint" />
            <mxPoint x="440" y="159.5" as="targetPoint" />
          </mxGeometry>
        </mxCell>
        <mxCell id="4Ejzvw8-H5sas0dCmpk8-57" style="rounded=0;orthogonalLoop=1;jettySize=auto;html=1;exitX=0;exitY=1;exitDx=0;exitDy=0;entryX=1;entryY=0;entryDx=0;entryDy=0;" edge="1" parent="1" source="4Ejzvw8-H5sas0dCmpk8-42" target="4Ejzvw8-H5sas0dCmpk8-43">
          <mxGeometry relative="1" as="geometry" />
        </mxCell>
        <mxCell id="4Ejzvw8-H5sas0dCmpk8-58" style="rounded=0;orthogonalLoop=1;jettySize=auto;html=1;exitX=1;exitY=1;exitDx=0;exitDy=0;entryX=0;entryY=0;entryDx=0;entryDy=0;" edge="1" parent="1" source="4Ejzvw8-H5sas0dCmpk8-42" target="4Ejzvw8-H5sas0dCmpk8-44">
          <mxGeometry relative="1" as="geometry" />
        </mxCell>
        <mxCell id="4Ejzvw8-H5sas0dCmpk8-42" value="Comp&lt;div&gt;Unit&lt;/div&gt;" style="ellipse;whiteSpace=wrap;html=1;aspect=fixed;fillColor=#f5f5f5;strokeColor=#666666;fontColor=#333333;" vertex="1" parent="1">
          <mxGeometry x="520" y="40" width="40" height="40" as="geometry" />
        </mxCell>
        <mxCell id="4Ejzvw8-H5sas0dCmpk8-59" style="edgeStyle=orthogonalEdgeStyle;rounded=0;orthogonalLoop=1;jettySize=auto;html=1;exitX=0.5;exitY=1;exitDx=0;exitDy=0;entryX=0.5;entryY=0;entryDx=0;entryDy=0;" edge="1" parent="1" source="4Ejzvw8-H5sas0dCmpk8-43" target="4Ejzvw8-H5sas0dCmpk8-46">
          <mxGeometry relative="1" as="geometry" />
        </mxCell>
        <mxCell id="4Ejzvw8-H5sas0dCmpk8-43" value="Decl" style="ellipse;whiteSpace=wrap;html=1;aspect=fixed;fillColor=#f5f5f5;strokeColor=#666666;fontColor=#333333;" vertex="1" parent="1">
          <mxGeometry x="480" y="80" width="40" height="40" as="geometry" />
        </mxCell>
        <mxCell id="4Ejzvw8-H5sas0dCmpk8-60" style="rounded=0;orthogonalLoop=1;jettySize=auto;html=1;exitX=1;exitY=1;exitDx=0;exitDy=0;entryX=0;entryY=0;entryDx=0;entryDy=0;" edge="1" parent="1" source="4Ejzvw8-H5sas0dCmpk8-44" target="4Ejzvw8-H5sas0dCmpk8-45">
          <mxGeometry relative="1" as="geometry" />
        </mxCell>
        <mxCell id="4Ejzvw8-H5sas0dCmpk8-44" value="Comp&lt;div&gt;Unit&lt;/div&gt;" style="ellipse;whiteSpace=wrap;html=1;aspect=fixed;fillColor=#f5f5f5;strokeColor=#666666;fontColor=#333333;" vertex="1" parent="1">
          <mxGeometry x="560" y="80" width="40" height="40" as="geometry" />
        </mxCell>
        <mxCell id="4Ejzvw8-H5sas0dCmpk8-63" style="rounded=0;orthogonalLoop=1;jettySize=auto;html=1;exitX=1;exitY=1;exitDx=0;exitDy=0;entryX=0.5;entryY=0;entryDx=0;entryDy=0;" edge="1" parent="1" source="4Ejzvw8-H5sas0dCmpk8-45" target="4Ejzvw8-H5sas0dCmpk8-73">
          <mxGeometry relative="1" as="geometry">
            <mxPoint x="657.5735931288073" y="179.03805922287438" as="targetPoint" />
          </mxGeometry>
        </mxCell>
        <mxCell id="4Ejzvw8-H5sas0dCmpk8-45" value="Func&lt;div&gt;Def&lt;/div&gt;" style="ellipse;whiteSpace=wrap;html=1;aspect=fixed;fillColor=#f5f5f5;strokeColor=#666666;fontColor=#333333;" vertex="1" parent="1">
          <mxGeometry x="600" y="120" width="40" height="40" as="geometry" />
        </mxCell>
        <mxCell id="4Ejzvw8-H5sas0dCmpk8-64" style="rounded=0;orthogonalLoop=1;jettySize=auto;html=1;exitX=0;exitY=1;exitDx=0;exitDy=0;entryX=1;entryY=0;entryDx=0;entryDy=0;" edge="1" parent="1" source="4Ejzvw8-H5sas0dCmpk8-46" target="4Ejzvw8-H5sas0dCmpk8-47">
          <mxGeometry relative="1" as="geometry" />
        </mxCell>
        <mxCell id="4Ejzvw8-H5sas0dCmpk8-65" style="edgeStyle=orthogonalEdgeStyle;rounded=0;orthogonalLoop=1;jettySize=auto;html=1;exitX=0.5;exitY=1;exitDx=0;exitDy=0;entryX=0.5;entryY=0;entryDx=0;entryDy=0;" edge="1" parent="1" source="4Ejzvw8-H5sas0dCmpk8-46" target="4Ejzvw8-H5sas0dCmpk8-48">
          <mxGeometry relative="1" as="geometry" />
        </mxCell>
        <mxCell id="4Ejzvw8-H5sas0dCmpk8-66" style="rounded=0;orthogonalLoop=1;jettySize=auto;html=1;exitX=1;exitY=1;exitDx=0;exitDy=0;entryX=0;entryY=0;entryDx=0;entryDy=0;" edge="1" parent="1" source="4Ejzvw8-H5sas0dCmpk8-46" target="4Ejzvw8-H5sas0dCmpk8-49">
          <mxGeometry relative="1" as="geometry" />
        </mxCell>
        <mxCell id="4Ejzvw8-H5sas0dCmpk8-46" value="Var&lt;div&gt;Decl&lt;/div&gt;" style="ellipse;whiteSpace=wrap;html=1;aspect=fixed;fillColor=#f5f5f5;strokeColor=#666666;fontColor=#333333;" vertex="1" parent="1">
          <mxGeometry x="480" y="130" width="40" height="40" as="geometry" />
        </mxCell>
        <mxCell id="4Ejzvw8-H5sas0dCmpk8-67" style="rounded=0;orthogonalLoop=1;jettySize=auto;html=1;exitX=0;exitY=1;exitDx=0;exitDy=0;entryX=0.5;entryY=0;entryDx=0;entryDy=0;" edge="1" parent="1" source="4Ejzvw8-H5sas0dCmpk8-47" target="4Ejzvw8-H5sas0dCmpk8-52">
          <mxGeometry relative="1" as="geometry" />
        </mxCell>
        <mxCell id="4Ejzvw8-H5sas0dCmpk8-47" value="BType" style="ellipse;whiteSpace=wrap;html=1;aspect=fixed;fillColor=#f5f5f5;strokeColor=#666666;fontColor=#333333;" vertex="1" parent="1">
          <mxGeometry x="433.5" y="180" width="40" height="40" as="geometry" />
        </mxCell>
        <mxCell id="4Ejzvw8-H5sas0dCmpk8-69" style="rounded=0;orthogonalLoop=1;jettySize=auto;html=1;exitX=0;exitY=1;exitDx=0;exitDy=0;entryX=0.5;entryY=0;entryDx=0;entryDy=0;" edge="1" parent="1" source="4Ejzvw8-H5sas0dCmpk8-48" target="4Ejzvw8-H5sas0dCmpk8-53">
          <mxGeometry relative="1" as="geometry" />
        </mxCell>
        <mxCell id="4Ejzvw8-H5sas0dCmpk8-70" style="rounded=0;orthogonalLoop=1;jettySize=auto;html=1;exitX=0.5;exitY=1;exitDx=0;exitDy=0;entryX=0.5;entryY=0;entryDx=0;entryDy=0;" edge="1" parent="1" source="4Ejzvw8-H5sas0dCmpk8-48" target="4Ejzvw8-H5sas0dCmpk8-54">
          <mxGeometry relative="1" as="geometry" />
        </mxCell>
        <mxCell id="4Ejzvw8-H5sas0dCmpk8-71" style="rounded=0;orthogonalLoop=1;jettySize=auto;html=1;exitX=1;exitY=1;exitDx=0;exitDy=0;entryX=0.5;entryY=0;entryDx=0;entryDy=0;" edge="1" parent="1" source="4Ejzvw8-H5sas0dCmpk8-48" target="4Ejzvw8-H5sas0dCmpk8-55">
          <mxGeometry relative="1" as="geometry" />
        </mxCell>
        <mxCell id="4Ejzvw8-H5sas0dCmpk8-48" value="VarDef" style="ellipse;whiteSpace=wrap;html=1;aspect=fixed;fillColor=#f5f5f5;strokeColor=#666666;fontColor=#333333;" vertex="1" parent="1">
          <mxGeometry x="480" y="180" width="40" height="40" as="geometry" />
        </mxCell>
        <mxCell id="4Ejzvw8-H5sas0dCmpk8-49" value="Term&lt;div&gt;;&lt;/div&gt;" style="ellipse;whiteSpace=wrap;html=1;aspect=fixed;fillColor=#fff2cc;strokeColor=#d6b656;" vertex="1" parent="1">
          <mxGeometry x="530" y="180" width="40" height="40" as="geometry" />
        </mxCell>
        <mxCell id="4Ejzvw8-H5sas0dCmpk8-52" value="Term&lt;div&gt;int&lt;/div&gt;" style="ellipse;whiteSpace=wrap;html=1;aspect=fixed;fillColor=#fff2cc;strokeColor=#d6b656;" vertex="1" parent="1">
          <mxGeometry x="393.5" y="230" width="40" height="40" as="geometry" />
        </mxCell>
        <mxCell id="4Ejzvw8-H5sas0dCmpk8-53" value="Term&lt;div&gt;a&lt;/div&gt;" style="ellipse;whiteSpace=wrap;html=1;aspect=fixed;fillColor=#fff2cc;strokeColor=#d6b656;" vertex="1" parent="1">
          <mxGeometry x="440" y="230" width="40" height="40" as="geometry" />
        </mxCell>
        <mxCell id="4Ejzvw8-H5sas0dCmpk8-54" value="Term&lt;div&gt;=&lt;/div&gt;" style="ellipse;whiteSpace=wrap;html=1;aspect=fixed;fillColor=#fff2cc;strokeColor=#d6b656;" vertex="1" parent="1">
          <mxGeometry x="480" y="230" width="40" height="40" as="geometry" />
        </mxCell>
        <mxCell id="4Ejzvw8-H5sas0dCmpk8-72" style="edgeStyle=orthogonalEdgeStyle;rounded=0;orthogonalLoop=1;jettySize=auto;html=1;exitX=0.5;exitY=1;exitDx=0;exitDy=0;entryX=0.5;entryY=0;entryDx=0;entryDy=0;" edge="1" parent="1" source="4Ejzvw8-H5sas0dCmpk8-55" target="4Ejzvw8-H5sas0dCmpk8-56">
          <mxGeometry relative="1" as="geometry" />
        </mxCell>
        <mxCell id="4Ejzvw8-H5sas0dCmpk8-55" value="InitVal" style="ellipse;whiteSpace=wrap;html=1;aspect=fixed;fillColor=#f5f5f5;strokeColor=#666666;fontColor=#333333;" vertex="1" parent="1">
          <mxGeometry x="520" y="230" width="40" height="40" as="geometry" />
        </mxCell>
        <mxCell id="4Ejzvw8-H5sas0dCmpk8-75" style="edgeStyle=orthogonalEdgeStyle;rounded=0;orthogonalLoop=1;jettySize=auto;html=1;exitX=0.5;exitY=1;exitDx=0;exitDy=0;entryX=0.5;entryY=0;entryDx=0;entryDy=0;" edge="1" parent="1" source="4Ejzvw8-H5sas0dCmpk8-56" target="4Ejzvw8-H5sas0dCmpk8-74">
          <mxGeometry relative="1" as="geometry" />
        </mxCell>
        <mxCell id="4Ejzvw8-H5sas0dCmpk8-56" value="Exp" style="ellipse;whiteSpace=wrap;html=1;aspect=fixed;fillColor=#f5f5f5;strokeColor=#666666;fontColor=#333333;" vertex="1" parent="1">
          <mxGeometry x="520" y="280" width="40" height="40" as="geometry" />
        </mxCell>
        <mxCell id="4Ejzvw8-H5sas0dCmpk8-73" value="&lt;font style=&quot;font-family: Cosolas; font-size: 13px;&quot;&gt;int main(){&lt;br&gt;&lt;/font&gt;&lt;div style=&quot;font-family: Cosolas;&quot;&gt;&lt;font style=&quot;font-size: 13px;&quot;&gt;&lt;span style=&quot;white-space: pre;&quot;&gt;&#x9;&lt;/span&gt;int b = a + 1;&lt;br&gt;&lt;/font&gt;&lt;/div&gt;&lt;div style=&quot;font-family: Cosolas;&quot;&gt;&lt;font style=&quot;font-size: 13px;&quot;&gt;&lt;span style=&quot;white-space: pre;&quot;&gt;&#x9;&lt;/span&gt;return b+1;&lt;/font&gt;&lt;/div&gt;&lt;div style=&quot;font-family: Cosolas;&quot;&gt;&lt;font style=&quot;font-size: 13px;&quot;&gt;}&lt;/font&gt;&lt;/div&gt;" style="rounded=0;whiteSpace=wrap;html=1;align=left;fillColor=#ffe6cc;strokeColor=#d79b00;" vertex="1" parent="1">
          <mxGeometry x="610" y="170" width="120" height="70" as="geometry" />
        </mxCell>
        <mxCell id="4Ejzvw8-H5sas0dCmpk8-74" value="&lt;font face=&quot;Cosolas&quot;&gt;&lt;span style=&quot;font-size: 13px;&quot;&gt;1&lt;/span&gt;&lt;/font&gt;" style="rounded=0;whiteSpace=wrap;html=1;align=center;fillColor=#ffe6cc;strokeColor=#d79b00;" vertex="1" parent="1">
          <mxGeometry x="500" y="330" width="80" height="80" as="geometry" />
        </mxCell>
        <mxCell id="4Ejzvw8-H5sas0dCmpk8-76" value="" style="endArrow=classic;html=1;rounded=0;" edge="1" parent="1">
          <mxGeometry width="50" height="50" relative="1" as="geometry">
            <mxPoint x="720" y="160" as="sourcePoint" />
            <mxPoint x="800" y="160" as="targetPoint" />
          </mxGeometry>
        </mxCell>
        <mxCell id="4Ejzvw8-H5sas0dCmpk8-77" value="" style="shape=table;html=1;whiteSpace=wrap;startSize=0;container=1;collapsible=0;childLayout=tableLayout;columnLines=0;rowLines=0;fontSize=16;strokeColor=#666666;align=left;verticalAlign=top;fontFamily=Cosolas;rounded=1;fillColor=#f5f5f5;fontColor=#333333;" vertex="1" parent="1">
          <mxGeometry x="800" y="92.5" width="120" height="140" as="geometry" />
        </mxCell>
        <mxCell id="4Ejzvw8-H5sas0dCmpk8-78" value="" style="shape=tableRow;horizontal=0;startSize=0;swimlaneHead=0;swimlaneBody=0;top=0;left=0;bottom=0;right=0;collapsible=0;dropTarget=0;fillColor=none;points=[[0,0.5],[1,0.5]];portConstraint=eastwest;fontSize=16;strokeColor=inherit;align=left;verticalAlign=top;fontFamily=Cosolas;" vertex="1" parent="4Ejzvw8-H5sas0dCmpk8-77">
          <mxGeometry width="120" height="21" as="geometry" />
        </mxCell>
        <mxCell id="4Ejzvw8-H5sas0dCmpk8-79" value="&amp;nbsp; def" style="shape=partialRectangle;html=1;whiteSpace=wrap;connectable=0;fillColor=none;top=0;left=0;bottom=0;right=0;overflow=hidden;fontSize=12;strokeColor=inherit;align=left;verticalAlign=top;fontFamily=Cosolas;" vertex="1" parent="4Ejzvw8-H5sas0dCmpk8-78">
          <mxGeometry width="60" height="21" as="geometry">
            <mxRectangle width="60" height="21" as="alternateBounds" />
          </mxGeometry>
        </mxCell>
        <mxCell id="4Ejzvw8-H5sas0dCmpk8-80" value="a,1" style="shape=partialRectangle;html=1;whiteSpace=wrap;connectable=0;fillColor=none;top=0;left=0;bottom=0;right=0;overflow=hidden;fontSize=12;strokeColor=inherit;align=left;verticalAlign=top;fontFamily=Cosolas;" vertex="1" parent="4Ejzvw8-H5sas0dCmpk8-78">
          <mxGeometry x="60" width="60" height="21" as="geometry">
            <mxRectangle width="60" height="21" as="alternateBounds" />
          </mxGeometry>
        </mxCell>
        <mxCell id="4Ejzvw8-H5sas0dCmpk8-81" value="" style="shape=tableRow;horizontal=0;startSize=0;swimlaneHead=0;swimlaneBody=0;top=0;left=0;bottom=0;right=0;collapsible=0;dropTarget=0;fillColor=none;points=[[0,0.5],[1,0.5]];portConstraint=eastwest;fontSize=16;strokeColor=inherit;align=left;verticalAlign=top;fontFamily=Cosolas;" vertex="1" parent="4Ejzvw8-H5sas0dCmpk8-77">
          <mxGeometry y="21" width="120" height="17" as="geometry" />
        </mxCell>
        <mxCell id="4Ejzvw8-H5sas0dCmpk8-82" value="" style="shape=partialRectangle;html=1;whiteSpace=wrap;connectable=0;fillColor=none;top=0;left=0;bottom=0;right=0;overflow=hidden;fontSize=12;strokeColor=inherit;align=left;verticalAlign=top;fontFamily=Cosolas;" vertex="1" parent="4Ejzvw8-H5sas0dCmpk8-81">
          <mxGeometry width="60" height="17" as="geometry">
            <mxRectangle width="60" height="17" as="alternateBounds" />
          </mxGeometry>
        </mxCell>
        <mxCell id="4Ejzvw8-H5sas0dCmpk8-83" value="" style="shape=partialRectangle;html=1;whiteSpace=wrap;connectable=0;fillColor=none;top=0;left=0;bottom=0;right=0;overflow=hidden;fontSize=12;strokeColor=inherit;align=left;verticalAlign=top;fontFamily=Cosolas;" vertex="1" parent="4Ejzvw8-H5sas0dCmpk8-81">
          <mxGeometry x="60" width="60" height="17" as="geometry">
            <mxRectangle width="60" height="17" as="alternateBounds" />
          </mxGeometry>
        </mxCell>
        <mxCell id="4Ejzvw8-H5sas0dCmpk8-84" value="" style="shape=tableRow;horizontal=0;startSize=0;swimlaneHead=0;swimlaneBody=0;top=0;left=0;bottom=0;right=0;collapsible=0;dropTarget=0;fillColor=none;points=[[0,0.5],[1,0.5]];portConstraint=eastwest;fontSize=16;strokeColor=inherit;align=left;verticalAlign=top;fontFamily=Cosolas;" vertex="1" parent="4Ejzvw8-H5sas0dCmpk8-77">
          <mxGeometry y="38" width="120" height="20" as="geometry" />
        </mxCell>
        <mxCell id="4Ejzvw8-H5sas0dCmpk8-85" value="&amp;nbsp; add" style="shape=partialRectangle;html=1;whiteSpace=wrap;connectable=0;fillColor=none;top=0;left=0;bottom=0;right=0;overflow=hidden;fontSize=12;strokeColor=inherit;align=left;verticalAlign=top;fontFamily=Cosolas;" vertex="1" parent="4Ejzvw8-H5sas0dCmpk8-84">
          <mxGeometry width="60" height="20" as="geometry">
            <mxRectangle width="60" height="20" as="alternateBounds" />
          </mxGeometry>
        </mxCell>
        <mxCell id="4Ejzvw8-H5sas0dCmpk8-86" value="temp,a,1" style="shape=partialRectangle;html=1;whiteSpace=wrap;connectable=0;fillColor=none;top=0;left=0;bottom=0;right=0;overflow=hidden;fontSize=12;strokeColor=inherit;align=left;verticalAlign=top;fontFamily=Cosolas;" vertex="1" parent="4Ejzvw8-H5sas0dCmpk8-84">
          <mxGeometry x="60" width="60" height="20" as="geometry">
            <mxRectangle width="60" height="20" as="alternateBounds" />
          </mxGeometry>
        </mxCell>
        <mxCell id="4Ejzvw8-H5sas0dCmpk8-87" style="shape=tableRow;horizontal=0;startSize=0;swimlaneHead=0;swimlaneBody=0;top=0;left=0;bottom=0;right=0;collapsible=0;dropTarget=0;fillColor=none;points=[[0,0.5],[1,0.5]];portConstraint=eastwest;fontSize=16;strokeColor=inherit;align=left;verticalAlign=top;fontFamily=Cosolas;" vertex="1" parent="4Ejzvw8-H5sas0dCmpk8-77">
          <mxGeometry y="58" width="120" height="20" as="geometry" />
        </mxCell>
        <mxCell id="4Ejzvw8-H5sas0dCmpk8-88" value="&amp;nbsp; def" style="shape=partialRectangle;html=1;whiteSpace=wrap;connectable=0;fillColor=none;top=0;left=0;bottom=0;right=0;overflow=hidden;fontSize=12;strokeColor=inherit;align=left;verticalAlign=top;fontFamily=Cosolas;" vertex="1" parent="4Ejzvw8-H5sas0dCmpk8-87">
          <mxGeometry width="60" height="20" as="geometry">
            <mxRectangle width="60" height="20" as="alternateBounds" />
          </mxGeometry>
        </mxCell>
        <mxCell id="4Ejzvw8-H5sas0dCmpk8-89" value="b,temp" style="shape=partialRectangle;html=1;whiteSpace=wrap;connectable=0;fillColor=none;top=0;left=0;bottom=0;right=0;overflow=hidden;fontSize=12;strokeColor=inherit;align=left;verticalAlign=top;fontFamily=Cosolas;" vertex="1" parent="4Ejzvw8-H5sas0dCmpk8-87">
          <mxGeometry x="60" width="60" height="20" as="geometry">
            <mxRectangle width="60" height="20" as="alternateBounds" />
          </mxGeometry>
        </mxCell>
        <mxCell id="4Ejzvw8-H5sas0dCmpk8-90" style="shape=tableRow;horizontal=0;startSize=0;swimlaneHead=0;swimlaneBody=0;top=0;left=0;bottom=0;right=0;collapsible=0;dropTarget=0;fillColor=none;points=[[0,0.5],[1,0.5]];portConstraint=eastwest;fontSize=16;strokeColor=inherit;align=left;verticalAlign=top;fontFamily=Cosolas;" vertex="1" parent="4Ejzvw8-H5sas0dCmpk8-77">
          <mxGeometry y="78" width="120" height="21" as="geometry" />
        </mxCell>
        <mxCell id="4Ejzvw8-H5sas0dCmpk8-91" value="&amp;nbsp; add" style="shape=partialRectangle;html=1;whiteSpace=wrap;connectable=0;fillColor=none;top=0;left=0;bottom=0;right=0;overflow=hidden;fontSize=12;strokeColor=inherit;align=left;verticalAlign=top;fontFamily=Cosolas;" vertex="1" parent="4Ejzvw8-H5sas0dCmpk8-90">
          <mxGeometry width="60" height="21" as="geometry">
            <mxRectangle width="60" height="21" as="alternateBounds" />
          </mxGeometry>
        </mxCell>
        <mxCell id="4Ejzvw8-H5sas0dCmpk8-92" value="temp,b,1" style="shape=partialRectangle;html=1;whiteSpace=wrap;connectable=0;fillColor=none;top=0;left=0;bottom=0;right=0;overflow=hidden;fontSize=12;strokeColor=inherit;align=left;verticalAlign=top;fontFamily=Cosolas;" vertex="1" parent="4Ejzvw8-H5sas0dCmpk8-90">
          <mxGeometry x="60" width="60" height="21" as="geometry">
            <mxRectangle width="60" height="21" as="alternateBounds" />
          </mxGeometry>
        </mxCell>
        <mxCell id="4Ejzvw8-H5sas0dCmpk8-93" style="shape=tableRow;horizontal=0;startSize=0;swimlaneHead=0;swimlaneBody=0;top=0;left=0;bottom=0;right=0;collapsible=0;dropTarget=0;fillColor=none;points=[[0,0.5],[1,0.5]];portConstraint=eastwest;fontSize=16;strokeColor=inherit;align=left;verticalAlign=top;fontFamily=Cosolas;" vertex="1" parent="4Ejzvw8-H5sas0dCmpk8-77">
          <mxGeometry y="99" width="120" height="20" as="geometry" />
        </mxCell>
        <mxCell id="4Ejzvw8-H5sas0dCmpk8-94" value="&amp;nbsp; _return" style="shape=partialRectangle;html=1;whiteSpace=wrap;connectable=0;fillColor=none;top=0;left=0;bottom=0;right=0;overflow=hidden;fontSize=12;strokeColor=inherit;align=left;verticalAlign=top;fontFamily=Cosolas;" vertex="1" parent="4Ejzvw8-H5sas0dCmpk8-93">
          <mxGeometry width="60" height="20" as="geometry">
            <mxRectangle width="60" height="20" as="alternateBounds" />
          </mxGeometry>
        </mxCell>
        <mxCell id="4Ejzvw8-H5sas0dCmpk8-95" value="temp" style="shape=partialRectangle;html=1;whiteSpace=wrap;connectable=0;fillColor=none;top=0;left=0;bottom=0;right=0;overflow=hidden;fontSize=12;strokeColor=inherit;align=left;verticalAlign=top;fontFamily=Cosolas;" vertex="1" parent="4Ejzvw8-H5sas0dCmpk8-93">
          <mxGeometry x="60" width="60" height="20" as="geometry">
            <mxRectangle width="60" height="20" as="alternateBounds" />
          </mxGeometry>
        </mxCell>
        <mxCell id="4Ejzvw8-H5sas0dCmpk8-105" style="shape=tableRow;horizontal=0;startSize=0;swimlaneHead=0;swimlaneBody=0;top=0;left=0;bottom=0;right=0;collapsible=0;dropTarget=0;fillColor=none;points=[[0,0.5],[1,0.5]];portConstraint=eastwest;fontSize=16;strokeColor=inherit;align=left;verticalAlign=top;fontFamily=Cosolas;" vertex="1" parent="4Ejzvw8-H5sas0dCmpk8-77">
          <mxGeometry y="119" width="120" height="21" as="geometry" />
        </mxCell>
        <mxCell id="4Ejzvw8-H5sas0dCmpk8-106" value="&amp;nbsp; ..." style="shape=partialRectangle;html=1;whiteSpace=wrap;connectable=0;fillColor=none;top=0;left=0;bottom=0;right=0;overflow=hidden;fontSize=12;strokeColor=inherit;align=left;verticalAlign=top;fontFamily=Cosolas;" vertex="1" parent="4Ejzvw8-H5sas0dCmpk8-105">
          <mxGeometry width="60" height="21" as="geometry">
            <mxRectangle width="60" height="21" as="alternateBounds" />
          </mxGeometry>
        </mxCell>
        <mxCell id="4Ejzvw8-H5sas0dCmpk8-107" value="..." style="shape=partialRectangle;html=1;whiteSpace=wrap;connectable=0;fillColor=none;top=0;left=0;bottom=0;right=0;overflow=hidden;fontSize=12;strokeColor=inherit;align=left;verticalAlign=top;fontFamily=Cosolas;" vertex="1" parent="4Ejzvw8-H5sas0dCmpk8-105">
          <mxGeometry x="60" width="60" height="21" as="geometry">
            <mxRectangle width="60" height="21" as="alternateBounds" />
          </mxGeometry>
        </mxCell>
        <mxCell id="4Ejzvw8-H5sas0dCmpk8-108" value="" style="endArrow=classic;html=1;rounded=0;" edge="1" parent="1">
          <mxGeometry width="50" height="50" relative="1" as="geometry">
            <mxPoint x="920" y="159.29" as="sourcePoint" />
            <mxPoint x="1000" y="159.29" as="targetPoint" />
          </mxGeometry>
        </mxCell>
        <mxCell id="4Ejzvw8-H5sas0dCmpk8-131" value="&lt;font face=&quot;Cosolas&quot;&gt;&lt;span style=&quot;white-space: pre;&quot;&gt;&#x9;&lt;/span&gt;.option nopic&lt;/font&gt;&lt;div&gt;&lt;font face=&quot;Cosolas&quot;&gt;&lt;span style=&quot;white-space: pre;&quot;&gt;&#x9;&lt;/span&gt;.data&lt;/font&gt;&lt;/div&gt;&lt;div&gt;&lt;font face=&quot;Cosolas&quot;&gt;&amp;nbsp; a_global:&lt;/font&gt;&lt;/div&gt;&lt;div&gt;&lt;font face=&quot;Cosolas&quot;&gt;&lt;span style=&quot;white-space: pre;&quot;&gt;&#x9;&lt;/span&gt;.word 1&lt;/font&gt;&lt;/div&gt;&lt;div&gt;&lt;font face=&quot;Cosolas&quot;&gt;&lt;br&gt;&lt;/font&gt;&lt;/div&gt;&lt;div&gt;&lt;font face=&quot;Cosolas&quot;&gt;&amp;nbsp; main:&lt;/font&gt;&lt;/div&gt;&lt;div&gt;&lt;font face=&quot;Cosolas&quot;&gt;&lt;span style=&quot;white-space: pre;&quot;&gt;&#x9;&lt;/span&gt;addi sp,sp,-512&lt;/font&gt;&lt;/div&gt;&lt;div&gt;&lt;font face=&quot;Cosolas&quot;&gt;&lt;span style=&quot;white-space: pre;&quot;&gt;&#x9;&lt;/span&gt;sw &lt;span style=&quot;white-space: pre;&quot;&gt;&#x9;&lt;/span&gt;ra,508(sp)&lt;/font&gt;&lt;/div&gt;&lt;div&gt;&lt;font face=&quot;Cosolas&quot;&gt;&lt;span style=&quot;white-space: pre;&quot;&gt;&#x9;&lt;/span&gt;sw &lt;span style=&quot;white-space: pre;&quot;&gt;&#x9;&lt;/span&gt;s0,504(sp)&lt;/font&gt;&lt;/div&gt;&lt;div&gt;&lt;font face=&quot;Cosolas&quot;&gt;&lt;span style=&quot;white-space: pre;&quot;&gt;&#x9;&lt;/span&gt;sw &lt;span style=&quot;white-space: pre;&quot;&gt;&#x9;&lt;/span&gt;s1,500(sp)&lt;/font&gt;&lt;/div&gt;&lt;div&gt;&lt;font face=&quot;Cosolas&quot;&gt;&lt;span style=&quot;white-space: pre;&quot;&gt;&#x9;&lt;/span&gt;sw &lt;span style=&quot;white-space: pre;&quot;&gt;&#x9;&lt;/span&gt;s2,496(sp)&lt;/font&gt;&lt;/div&gt;&lt;div&gt;&lt;font face=&quot;Cosolas&quot;&gt;&lt;span style=&quot;white-space: pre;&quot;&gt;&#x9;&lt;/span&gt;sw &lt;span style=&quot;white-space: pre;&quot;&gt;&#x9;&lt;/span&gt;s3,492(sp)&lt;/font&gt;&lt;/div&gt;&lt;div&gt;&lt;font face=&quot;Cosolas&quot;&gt;&lt;span style=&quot;white-space: pre;&quot;&gt;&#x9;&lt;/span&gt;addi&lt;span style=&quot;white-space: pre;&quot;&gt;&#x9;&lt;/span&gt;s0,sp,512&lt;/font&gt;&lt;/div&gt;&lt;div&gt;&lt;font face=&quot;Cosolas&quot;&gt;&lt;span style=&quot;white-space: pre;&quot;&gt;&#x9;&lt;/span&gt;...&lt;/font&gt;&lt;/div&gt;&lt;div&gt;&lt;font face=&quot;Cosolas&quot;&gt;&lt;span style=&quot;white-space: pre;&quot;&gt;&#x9;&lt;/span&gt;...&lt;/font&gt;&lt;/div&gt;&lt;div&gt;&lt;div&gt;&lt;font face=&quot;Cosolas&quot;&gt;&lt;span style=&quot;white-space: pre;&quot;&gt;&#x9;&lt;/span&gt;lw&lt;span style=&quot;white-space: pre;&quot;&gt;&#x9;&lt;/span&gt;ra,508(sp)&lt;/font&gt;&lt;/div&gt;&lt;div&gt;&lt;span style=&quot;font-family: Cosolas; background-color: transparent; color: light-dark(rgb(0, 0, 0), rgb(255, 255, 255));&quot;&gt;&lt;font&gt;&lt;span style=&quot;white-space: pre;&quot;&gt;&#x9;&lt;/span&gt;lw&lt;span style=&quot;white-space: pre;&quot;&gt;&#x9;&lt;/span&gt;s0,504(sp)&lt;/font&gt;&lt;/span&gt;&lt;/div&gt;&lt;div&gt;&lt;span style=&quot;font-family: Cosolas; background-color: transparent; color: light-dark(rgb(0, 0, 0), rgb(255, 255, 255));&quot;&gt;&lt;font&gt;&lt;span style=&quot;white-space: pre;&quot;&gt;&#x9;&lt;/span&gt;lw&lt;span style=&quot;white-space: pre;&quot;&gt;&#x9;&lt;/span&gt;s1,500(sp)&lt;/font&gt;&lt;/span&gt;&lt;/div&gt;&lt;div&gt;&lt;span style=&quot;font-family: Cosolas; background-color: transparent; color: light-dark(rgb(0, 0, 0), rgb(255, 255, 255));&quot;&gt;&lt;font&gt;&lt;span style=&quot;white-space: pre;&quot;&gt;&#x9;&lt;/span&gt;lw&lt;span style=&quot;white-space: pre;&quot;&gt;&#x9;&lt;/span&gt;s2,496(sp)&lt;/font&gt;&lt;/span&gt;&lt;/div&gt;&lt;div&gt;&lt;span style=&quot;font-family: Cosolas; background-color: transparent; color: light-dark(rgb(0, 0, 0), rgb(255, 255, 255));&quot;&gt;&lt;font&gt;&lt;span style=&quot;white-space: pre;&quot;&gt;&#x9;&lt;/span&gt;lw&lt;span style=&quot;white-space: pre;&quot;&gt;&#x9;&lt;/span&gt;s3,492(sp)&lt;/font&gt;&lt;/span&gt;&lt;/div&gt;&lt;/div&gt;&lt;div&gt;&lt;span style=&quot;font-family: Cosolas; background-color: transparent; color: light-dark(rgb(0, 0, 0), rgb(255, 255, 255));&quot;&gt;&lt;font&gt;&lt;span style=&quot;white-space: pre;&quot;&gt;&#x9;&lt;/span&gt;addi&lt;span style=&quot;white-space: pre;&quot;&gt;&#x9;&lt;/span&gt;sp,sp,512&lt;/font&gt;&lt;/span&gt;&lt;/div&gt;&lt;div&gt;&lt;span style=&quot;font-family: Cosolas; background-color: transparent; color: light-dark(rgb(0, 0, 0), rgb(255, 255, 255));&quot;&gt;&lt;font&gt;&lt;span style=&quot;white-space: pre;&quot;&gt;&#x9;&lt;/span&gt;jr&lt;span style=&quot;white-space: pre;&quot;&gt;&#x9;&lt;/span&gt;ra&lt;/font&gt;&lt;/span&gt;&lt;/div&gt;&lt;div&gt;&lt;span style=&quot;font-family: Cosolas; background-color: transparent; color: light-dark(rgb(0, 0, 0), rgb(255, 255, 255));&quot;&gt;&lt;font&gt;&lt;span style=&quot;white-space: pre;&quot;&gt;&#x9;&lt;/span&gt;.size main,.-main&lt;/font&gt;&lt;/span&gt;&lt;/div&gt;" style="rounded=1;whiteSpace=wrap;html=1;align=left;verticalAlign=top;fillColor=#f5f5f5;fontColor=#333333;strokeColor=#666666;" vertex="1" parent="1">
          <mxGeometry x="1000" y="40" width="130" height="360" as="geometry" />
        </mxCell>
        <mxCell id="4Ejzvw8-H5sas0dCmpk8-132" value="C语言程序文本" style="text;html=1;align=center;verticalAlign=middle;whiteSpace=wrap;rounded=0;" vertex="1" parent="1">
          <mxGeometry x="55" y="10" width="90" height="30" as="geometry" />
        </mxCell>
        <mxCell id="4Ejzvw8-H5sas0dCmpk8-133" value="词法单元序列" style="text;html=1;align=center;verticalAlign=middle;whiteSpace=wrap;rounded=0;" vertex="1" parent="1">
          <mxGeometry x="255" y="10" width="90" height="30" as="geometry" />
        </mxCell>
        <mxCell id="4Ejzvw8-H5sas0dCmpk8-134" value="抽象语法树" style="text;html=1;align=center;verticalAlign=middle;whiteSpace=wrap;rounded=0;" vertex="1" parent="1">
          <mxGeometry x="495" y="10" width="90" height="30" as="geometry" />
        </mxCell>
        <mxCell id="4Ejzvw8-H5sas0dCmpk8-135" value="线性IR" style="text;html=1;align=center;verticalAlign=middle;whiteSpace=wrap;rounded=0;" vertex="1" parent="1">
          <mxGeometry x="810" y="10" width="90" height="30" as="geometry" />
        </mxCell>
        <mxCell id="4Ejzvw8-H5sas0dCmpk8-136" value="目标代码" style="text;html=1;align=center;verticalAlign=middle;whiteSpace=wrap;rounded=0;" vertex="1" parent="1">
          <mxGeometry x="1020" y="10" width="90" height="30" as="geometry" />
        </mxCell>
        <mxCell id="4Ejzvw8-H5sas0dCmpk8-139" value="" style="verticalLabelPosition=bottom;shadow=0;dashed=0;align=center;html=1;verticalAlign=top;strokeWidth=1;shape=mxgraph.mockup.markup.curlyBrace;whiteSpace=wrap;strokeColor=#999999;rotation=-180;" vertex="1" parent="1">
          <mxGeometry x="40" y="420" width="500" height="40" as="geometry" />
        </mxCell>
        <mxCell id="4Ejzvw8-H5sas0dCmpk8-140" value="实验一" style="text;html=1;align=center;verticalAlign=middle;whiteSpace=wrap;rounded=0;" vertex="1" parent="1">
          <mxGeometry x="265" y="460" width="60" height="30" as="geometry" />
        </mxCell>
        <mxCell id="4Ejzvw8-H5sas0dCmpk8-141" value="" style="verticalLabelPosition=bottom;shadow=0;dashed=0;align=center;html=1;verticalAlign=top;strokeWidth=1;shape=mxgraph.mockup.markup.curlyBrace;whiteSpace=wrap;strokeColor=#999999;rotation=-180;" vertex="1" parent="1">
          <mxGeometry x="540" y="420" width="320" height="40" as="geometry" />
        </mxCell>
        <mxCell id="4Ejzvw8-H5sas0dCmpk8-142" value="实验二" style="text;html=1;align=center;verticalAlign=middle;whiteSpace=wrap;rounded=0;" vertex="1" parent="1">
          <mxGeometry x="670" y="460" width="60" height="30" as="geometry" />
        </mxCell>
        <mxCell id="4Ejzvw8-H5sas0dCmpk8-143" value="" style="verticalLabelPosition=bottom;shadow=0;dashed=0;align=center;html=1;verticalAlign=top;strokeWidth=1;shape=mxgraph.mockup.markup.curlyBrace;whiteSpace=wrap;strokeColor=#999999;rotation=-180;" vertex="1" parent="1">
          <mxGeometry x="860" y="420" width="220" height="40" as="geometry" />
        </mxCell>
        <mxCell id="4Ejzvw8-H5sas0dCmpk8-144" value="实验三" style="text;html=1;align=center;verticalAlign=middle;whiteSpace=wrap;rounded=0;" vertex="1" parent="1">
          <mxGeometry x="940" y="460" width="60" height="30" as="geometry" />
        </mxCell>
      </root>
    </mxGraphModel>
  </diagram>
</mxfile>
